<svg width="32" height="33" viewBox="0 0 32 33" fill="none" xmlns="http://www.w3.org/2000/svg">
<g id="OBJECTS" clip-path="url(#clip0_2276_11)">
<path id="Vector" d="M31.7368 8.5245C31.5232 6.41967 30.7178 4.55327 29.1482 3.06509C27.5047 1.49469 25.4913 0.795822 23.2808 0.680714C19.5252 0.475164 10.5925 0.343612 7.45333 0.861598C3.8786 1.44536 1.52832 3.53375 0.533967 7.07743C-0.230286 9.79891 -0.0741482 22.3539 0.369611 25.0425C0.977727 28.7259 3.14722 31.0856 6.79591 32.023C9.31876 32.6725 21.7194 32.5903 24.5052 32.1381C28.1868 31.5461 30.5535 29.3755 31.515 25.7331C32.2463 22.9377 31.9916 11.0404 31.7368 8.51627V8.5245ZM28.7949 24.5163C28.3676 27.3118 26.5103 29.0466 23.6999 29.3508C21.1195 29.6304 9.58995 29.7866 7.19858 29.1206C4.90582 28.4793 3.5992 26.9089 3.22118 24.5985C2.8596 22.395 2.7692 11.3858 3.22118 8.44228C3.64028 5.67146 5.4975 3.93662 8.29154 3.62419C11.1267 3.30353 21.3249 3.27064 24.0368 3.68996C26.8226 4.11751 28.5566 5.97568 28.8606 8.79582C29.1482 11.4186 29.2304 21.6879 28.7949 24.5163ZM16.008 8.28606C11.48 8.28606 7.79848 11.9531 7.79848 16.4916C7.79848 21.0219 11.4636 24.7054 15.9998 24.7054C20.5278 24.7054 24.2094 21.0384 24.2094 16.4998C24.2094 11.9695 20.5442 8.28606 16.008 8.28606ZM15.9505 21.7948C13.0168 21.7701 10.6665 19.3693 10.6911 16.4423C10.7158 13.507 13.1154 11.1555 16.0409 11.1802C18.9746 11.2049 21.3249 13.6057 21.3003 16.5327C21.2756 19.468 18.876 21.8195 15.9505 21.7948ZM26.4528 7.97362C26.4528 9.03426 25.59 9.88935 24.5299 9.88935C23.4698 9.88935 22.6151 9.02604 22.6151 7.9654C22.6151 6.90476 23.478 6.04968 24.5381 6.04968C25.5982 6.04968 26.4528 6.91299 26.4528 7.97362Z" fill="black"/>
</g>
<defs>
<clipPath id="clip0_2276_11">
<rect width="32" height="32" fill="white" transform="translate(0 0.5)"/>
</clipPath>
</defs>
</svg>
