<svg width="32" height="33" viewBox="0 0 32 33" fill="none" xmlns="http://www.w3.org/2000/svg">
<g id="OBJECTS" clip-path="url(#clip0_2294_3)">
<path id="Vector" fill-rule="evenodd" clip-rule="evenodd" d="M4.55929e-05 32.4999C0.183666 31.8107 0.333901 31.2046 0.500828 30.6068C1.02665 28.6888 1.56916 26.7708 2.07829 24.8445C2.15341 24.5539 2.12002 24.1719 1.98648 23.9145C-2.92953 14.6068 2.13672 3.33953 12.4361 0.939946C21.7924 -1.24376 30.1972 5.04166 31.733 13.4361C33.3271 22.1958 27.5681 30.5238 18.8295 32.0432C15.3574 32.641 12.0355 32.1345 8.86389 30.5985C8.58012 30.4573 8.17949 30.4241 7.87902 30.4905C3.65576 31.545 0.843029 32.3338 -0.00830078 32.4999H4.55929e-05ZM3.71418 28.8548C5.29999 28.4397 6.76896 28.0827 8.22122 27.6758C8.6302 27.5679 8.94736 27.626 9.3146 27.8336C12.0606 29.4111 15.0068 30.0007 18.1534 29.4942C25.3981 28.34 30.3558 21.598 29.2457 14.4241C28.0939 6.98458 21.083 1.99443 13.6714 3.34783C4.7074 4.97523 -0.0500324 14.914 4.40693 22.7853C4.89937 23.6571 5.03291 24.3795 4.7074 25.3011C4.31512 26.422 4.06473 27.5845 3.72253 28.8465L3.71418 28.8548Z" fill="black"/>
<path id="Vector_2" fill-rule="evenodd" clip-rule="evenodd" d="M20.2066 23.9894C17.0934 23.8815 12.1273 21.4321 8.73037 15.5618C7.52014 13.4777 7.69542 11.0947 9.46485 9.45904C10.0658 8.90273 10.8086 9.03558 11.5097 9.16013C11.685 9.18504 11.8603 9.45074 11.9521 9.64171C12.4028 10.663 12.8535 11.6926 13.2458 12.7387C13.4544 13.2951 13.0705 13.8098 12.2609 14.7398C12.0021 15.0304 11.9521 15.3044 12.1524 15.6448C13.4628 17.8451 15.2823 19.4393 17.686 20.3776C18.0366 20.5104 18.3037 20.4274 18.529 20.1534C19.806 18.609 19.9312 18.1523 20.5989 18.4762C23.8206 20.0122 24.071 20.0704 24.0877 20.4357C24.1962 23.1342 21.709 24.1139 20.1983 23.9977L20.2066 23.9894Z" fill="black"/>
</g>
<defs>
<clipPath id="clip0_2294_3">
<rect width="32" height="32" fill="white" transform="translate(0 0.5)"/>
</clipPath>
</defs>
</svg>
